<svg xmlns="http://www.w3.org/2000/svg" xmlns:xlink="http://www.w3.org/1999/xlink" width="500" zoomAndPan="magnify" viewBox="0 0 375 374.999991" height="500" preserveAspectRatio="xMidYMid meet" version="1.0"><defs><g/></defs><rect x="-37.5" width="450" fill="#ffffff" y="-37.499999" height="449.999989" fill-opacity="1"/><rect x="-37.5" width="450" fill="#ffffff" y="-37.499999" height="449.999989" fill-opacity="1"/><rect x="-37.5" width="450" fill="#ab7a5f" y="-37.499999" height="449.999989" fill-opacity="1"/><g fill="#ffffff" fill-opacity="1"><g transform="translate(59.79452, 249.675184)"><g><path d="M 130.234375 -155.75 C 129.203125 -145.332031 128.6875 -135.945312 128.6875 -127.59375 C 128.6875 -120.257812 128.90625 -114.242188 129.34375 -109.546875 L 124.296875 -109.546875 C 123.117188 -120.835938 121.648438 -129.234375 119.890625 -134.734375 C 118.128906 -140.234375 115.046875 -144.265625 110.640625 -146.828125 C 106.242188 -149.398438 99.5 -150.6875 90.40625 -150.6875 L 78.53125 -150.6875 L 78.53125 -25.515625 C 78.53125 -19.359375 79.113281 -14.882812 80.28125 -12.09375 C 81.457031 -9.3125 83.515625 -7.40625 86.453125 -6.375 C 89.390625 -5.351562 94.15625 -4.695312 100.75 -4.40625 L 100.75 0 C 93.125 -0.4375 82.347656 -0.65625 68.421875 -0.65625 C 53.753906 -0.65625 42.898438 -0.4375 35.859375 0 L 35.859375 -4.40625 C 42.453125 -4.695312 47.21875 -5.351562 50.15625 -6.375 C 53.09375 -7.40625 55.144531 -9.3125 56.3125 -12.09375 C 57.488281 -14.882812 58.078125 -19.359375 58.078125 -25.515625 L 58.078125 -150.6875 L 46.203125 -150.6875 C 37.109375 -150.6875 30.359375 -149.398438 25.953125 -146.828125 C 21.554688 -144.265625 18.476562 -140.234375 16.71875 -134.734375 C 14.957031 -129.234375 13.488281 -120.835938 12.3125 -109.546875 L 7.265625 -109.546875 C 7.703125 -114.242188 7.921875 -120.257812 7.921875 -127.59375 C 7.921875 -135.945312 7.40625 -145.332031 6.375 -155.75 C 18.550781 -155.3125 39.234375 -155.09375 68.421875 -155.09375 C 97.453125 -155.09375 118.054688 -155.3125 130.234375 -155.75 Z M 130.234375 -155.75 "/></g></g></g><g fill="#ffffff" fill-opacity="1"><g transform="translate(196.403388, 249.675184)"><g><path d="M 56.3125 -158.171875 C 62.769531 -158.171875 67.867188 -157.472656 71.609375 -156.078125 C 75.347656 -154.679688 79.195312 -152.664062 83.15625 -150.03125 C 86.382812 -147.976562 88.878906 -146.953125 90.640625 -146.953125 C 91.953125 -146.953125 92.972656 -147.71875 93.703125 -149.25 C 94.441406 -150.789062 95.03125 -153.25 95.46875 -156.625 L 100.53125 -156.625 C 99.800781 -148.125 99.4375 -133.164062 99.4375 -111.75 L 94.375 -111.75 C 93.488281 -123.632812 90.078125 -133.644531 84.140625 -141.78125 C 78.203125 -149.914062 69.585938 -153.984375 58.296875 -153.984375 C 50.378906 -153.984375 43.925781 -151.597656 38.9375 -146.828125 C 33.945312 -142.066406 31.453125 -135.945312 31.453125 -128.46875 C 31.453125 -122.894531 32.734375 -118.054688 35.296875 -113.953125 C 37.867188 -109.847656 41.132812 -106.328125 45.09375 -103.390625 C 49.050781 -100.460938 54.695312 -96.722656 62.03125 -92.171875 L 68.421875 -88.21875 C 77.660156 -82.5 84.953125 -77.472656 90.296875 -73.140625 C 95.648438 -68.816406 99.941406 -63.867188 103.171875 -58.296875 C 106.398438 -52.722656 108.015625 -46.195312 108.015625 -38.71875 C 108.015625 -25.375 103.613281 -15.070312 94.8125 -7.8125 C 86.007812 -0.550781 74.863281 3.078125 61.375 3.078125 C 54.332031 3.078125 48.570312 2.34375 44.09375 0.875 C 39.625 -0.582031 35.335938 -2.5625 31.234375 -5.0625 C 28.003906 -7.113281 25.515625 -8.140625 23.765625 -8.140625 C 22.441406 -8.140625 21.410156 -7.367188 20.671875 -5.828125 C 19.941406 -4.285156 19.359375 -1.828125 18.921875 1.546875 L 13.859375 1.546875 C 14.441406 -6.523438 14.734375 -24.125 14.734375 -51.25 L 19.796875 -51.25 C 20.828125 -36.4375 24.492188 -24.410156 30.796875 -15.171875 C 37.097656 -5.929688 46.773438 -1.3125 59.828125 -1.3125 C 67.753906 -1.3125 74.503906 -3.769531 80.078125 -8.6875 C 85.648438 -13.601562 88.4375 -20.898438 88.4375 -30.578125 C 88.4375 -38.785156 85.6875 -45.75 80.1875 -51.46875 C 74.6875 -57.195312 65.992188 -63.648438 54.109375 -70.828125 C 45.460938 -76.109375 38.460938 -80.800781 33.109375 -84.90625 C 27.753906 -89.019531 23.390625 -93.972656 20.015625 -99.765625 C 16.640625 -105.554688 14.953125 -112.335938 14.953125 -120.109375 C 14.953125 -132.429688 18.910156 -141.851562 26.828125 -148.375 C 34.753906 -154.90625 44.582031 -158.171875 56.3125 -158.171875 Z M 56.3125 -158.171875 "/></g></g></g><g fill="#000000" fill-opacity="1"><g transform="translate(113.908711, 286.293909)"><g><path d="M 2.265625 4.390625 L 2.265625 -8.140625 C 2.265625 -8.566406 2.171875 -8.867188 1.984375 -9.046875 C 1.804688 -9.222656 1.546875 -9.3125 1.203125 -9.3125 L 0.359375 -9.3125 L 0.359375 -10.828125 L 1.6875 -10.828125 C 2.320312 -10.828125 2.851562 -10.640625 3.28125 -10.265625 C 3.707031 -9.890625 3.921875 -9.25 3.921875 -8.34375 L 3.921875 4.390625 Z M 2.265625 4.390625 "/></g></g></g><g fill="#000000" fill-opacity="1"><g transform="translate(125.635364, 286.293909)"><g><path d="M 1.5625 0 L 1.5625 -10.828125 L 3.203125 -10.828125 L 3.203125 0 Z M 1.5625 0 "/></g></g></g><g fill="#000000" fill-opacity="1"><g transform="translate(136.740313, 286.293909)"><g><path d="M 6.8125 0 L 6.8125 -7.046875 C 6.8125 -7.898438 6.617188 -8.488281 6.234375 -8.8125 C 5.859375 -9.144531 5.335938 -9.3125 4.671875 -9.3125 L 0.28125 -9.3125 L 0.28125 -10.828125 L 4.78125 -10.828125 C 6.019531 -10.828125 6.941406 -10.550781 7.546875 -10 C 8.148438 -9.457031 8.453125 -8.582031 8.453125 -7.375 L 8.453125 0 Z M 6.8125 0 "/></g></g></g><g fill="#000000" fill-opacity="1"><g transform="translate(153.00177, 286.293909)"><g><path d="M 6.40625 -11.046875 C 7.675781 -11.046875 8.648438 -10.703125 9.328125 -10.015625 C 10.003906 -9.328125 10.34375 -8.4375 10.34375 -7.34375 L 10.34375 0 L 5.578125 0 L 5.578125 -1.515625 L 8.6875 -1.515625 L 8.6875 -7.078125 C 8.6875 -7.835938 8.492188 -8.445312 8.109375 -8.90625 C 7.722656 -9.375 7.117188 -9.609375 6.296875 -9.609375 C 5.328125 -9.609375 4.597656 -9.28125 4.109375 -8.625 C 3.628906 -7.96875 3.328125 -7.085938 3.203125 -5.984375 L 2.5625 0 L 0.921875 0 L 1.734375 -7.5 L 1 -10.828125 L 2.65625 -10.828125 L 2.96875 -9.296875 L 3.015625 -9.296875 C 3.222656 -9.597656 3.472656 -9.882812 3.765625 -10.15625 C 4.054688 -10.425781 4.410156 -10.640625 4.828125 -10.796875 C 5.253906 -10.960938 5.78125 -11.046875 6.40625 -11.046875 Z M 6.40625 -11.046875 "/></g></g></g><g fill="#000000" fill-opacity="1"><g transform="translate(171.146638, 286.293909)"><g><path d="M 1.5625 0 L 1.5625 -10.828125 L 3.203125 -10.828125 L 3.203125 0 Z M 1.5625 0 "/></g></g></g><g fill="#000000" fill-opacity="1"><g transform="translate(182.251588, 286.293909)"><g><path d="M 1.6875 0 L 0.734375 -10.828125 L 2.375 -10.828125 L 2.875 -5.265625 L 4.140625 -5.65625 C 4.640625 -5.8125 5.015625 -6.070312 5.265625 -6.4375 C 5.515625 -6.8125 5.671875 -7.34375 5.734375 -8.03125 L 5.984375 -10.828125 L 7.625 -10.828125 L 7.40625 -8.359375 C 7.34375 -7.660156 7.238281 -7.046875 7.09375 -6.515625 C 6.957031 -5.992188 6.6875 -5.539062 6.28125 -5.15625 C 5.875 -4.769531 5.238281 -4.445312 4.375 -4.1875 L 3 -3.78125 L 3.203125 -1.515625 L 5.5 -1.515625 C 6.320312 -1.515625 7.070312 -1.6875 7.75 -2.03125 C 8.4375 -2.375 9 -2.910156 9.4375 -3.640625 C 9.875 -4.367188 10.148438 -5.320312 10.265625 -6.5 L 10.671875 -10.828125 L 12.3125 -10.828125 L 11.90625 -6.5 C 11.875 -6.03125 11.789062 -5.503906 11.65625 -4.921875 C 11.519531 -4.347656 11.3125 -3.773438 11.03125 -3.203125 C 10.75 -2.628906 10.367188 -2.097656 9.890625 -1.609375 C 9.421875 -1.117188 8.828125 -0.726562 8.109375 -0.4375 C 7.390625 -0.144531 6.519531 0 5.5 0 Z M 1.6875 0 "/></g></g></g><g fill="#000000" fill-opacity="1"><g transform="translate(201.457007, 286.293909)"><g/></g></g><g fill="#000000" fill-opacity="1"><g transform="translate(212.360805, 286.293909)"><g><path d="M 2.484375 4.390625 L 2.484375 -4.375 L 0.09375 -10.828125 L 1.828125 -10.828125 L 3.96875 -4.671875 L 5.015625 -4.984375 C 5.515625 -5.140625 5.890625 -5.398438 6.140625 -5.765625 C 6.390625 -6.140625 6.546875 -6.671875 6.609375 -7.359375 L 6.9375 -10.828125 L 8.578125 -10.828125 L 8.28125 -7.6875 C 8.226562 -7 8.128906 -6.382812 7.984375 -5.84375 C 7.847656 -5.3125 7.570312 -4.851562 7.15625 -4.46875 C 6.75 -4.082031 6.113281 -3.765625 5.25 -3.515625 L 4.140625 -3.1875 L 4.140625 4.390625 Z M 2.484375 4.390625 "/></g></g></g><g fill="#000000" fill-opacity="1"><g transform="translate(227.470271, 286.293909)"><g><path d="M 1.375 -3.890625 L 1.375 -10.828125 L 3.015625 -10.828125 L 3.015625 -5.546875 L 2.203125 -3.890625 Z M 1.375 -3.890625 "/></g></g></g><g fill="#000000" fill-opacity="1"><g transform="translate(238.118069, 286.293909)"><g><path d="M 1.375 -3.890625 L 1.375 -10.828125 L 3.015625 -10.828125 L 3.015625 -5.546875 L 2.203125 -3.890625 Z M 1.375 -3.890625 "/></g></g></g><g fill="#000000" fill-opacity="1"><g transform="translate(248.765866, 286.293909)"><g><path d="M 6.3125 0.234375 C 5.300781 0.234375 4.425781 0.0507812 3.6875 -0.3125 C 2.945312 -0.6875 2.375 -1.285156 1.96875 -2.109375 C 1.570312 -2.941406 1.375 -4.046875 1.375 -5.421875 L 1.375 -10.828125 L 3.015625 -10.828125 L 3.015625 -5.421875 C 3.015625 -4.109375 3.28125 -3.070312 3.8125 -2.3125 C 4.34375 -1.5625 5.1875 -1.1875 6.34375 -1.1875 C 7.488281 -1.1875 8.328125 -1.5625 8.859375 -2.3125 C 9.398438 -3.070312 9.671875 -4.109375 9.671875 -5.421875 C 9.671875 -5.890625 9.660156 -6.363281 9.640625 -6.84375 C 9.628906 -7.320312 9.570312 -7.757812 9.46875 -8.15625 C 9.363281 -8.550781 9.191406 -8.867188 8.953125 -9.109375 C 8.710938 -9.359375 8.375 -9.484375 7.9375 -9.484375 C 7.625 -9.484375 7.269531 -9.425781 6.875 -9.3125 C 6.488281 -9.207031 6.144531 -9.066406 5.84375 -8.890625 L 5.84375 -10.46875 C 6.070312 -10.570312 6.382812 -10.6875 6.78125 -10.8125 C 7.175781 -10.945312 7.625 -11.015625 8.125 -11.015625 C 8.882812 -11.015625 9.484375 -10.867188 9.921875 -10.578125 C 10.359375 -10.296875 10.679688 -9.898438 10.890625 -9.390625 C 11.109375 -8.878906 11.25 -8.285156 11.3125 -7.609375 C 11.382812 -6.929688 11.421875 -6.203125 11.421875 -5.421875 C 11.421875 -3.609375 10.957031 -2.210938 10.03125 -1.234375 C 9.113281 -0.253906 7.875 0.234375 6.3125 0.234375 Z M 6.3125 0.234375 "/></g></g></g></svg>