<svg xmlns="http://www.w3.org/2000/svg" xmlns:xlink="http://www.w3.org/1999/xlink" width="500" zoomAndPan="magnify" viewBox="0 0 375 374.999991" height="500" preserveAspectRatio="xMidYMid meet" version="1.0"><defs><g/></defs><rect x="-37.5" width="450" fill="#ffffff" y="-37.499999" height="449.999989" fill-opacity="1"/><rect x="-37.5" width="450" fill="#ffffff" y="-37.499999" height="449.999989" fill-opacity="1"/><rect x="-37.5" width="450" fill="#ab7a5f" y="-37.499999" height="449.999989" fill-opacity="1"/><g fill="#ffffff" fill-opacity="1"><g transform="translate(59.79452, 249.675184)"><g><path d="M 130.234375 -155.75 C 129.203125 -145.332031 128.6875 -135.945312 128.6875 -127.59375 C 128.6875 -120.257812 128.90625 -114.242188 129.34375 -109.546875 L 124.296875 -109.546875 C 123.117188 -120.835938 121.648438 -129.234375 119.890625 -134.734375 C 118.128906 -140.234375 115.046875 -144.265625 110.640625 -146.828125 C 106.242188 -149.398438 99.5 -150.6875 90.40625 -150.6875 L 78.53125 -150.6875 L 78.53125 -25.515625 C 78.53125 -19.359375 79.113281 -14.882812 80.28125 -12.09375 C 81.457031 -9.3125 83.515625 -7.40625 86.453125 -6.375 C 89.390625 -5.351562 94.15625 -4.695312 100.75 -4.40625 L 100.75 0 C 93.125 -0.4375 82.347656 -0.65625 68.421875 -0.65625 C 53.753906 -0.65625 42.898438 -0.4375 35.859375 0 L 35.859375 -4.40625 C 42.453125 -4.695312 47.21875 -5.351562 50.15625 -6.375 C 53.09375 -7.40625 55.144531 -9.3125 56.3125 -12.09375 C 57.488281 -14.882812 58.078125 -19.359375 58.078125 -25.515625 L 58.078125 -150.6875 L 46.203125 -150.6875 C 37.109375 -150.6875 30.359375 -149.398438 25.953125 -146.828125 C 21.554688 -144.265625 18.476562 -140.234375 16.71875 -134.734375 C 14.957031 -129.234375 13.488281 -120.835938 12.3125 -109.546875 L 7.265625 -109.546875 C 7.703125 -114.242188 7.921875 -120.257812 7.921875 -127.59375 C 7.921875 -135.945312 7.40625 -145.332031 6.375 -155.75 C 18.550781 -155.3125 39.234375 -155.09375 68.421875 -155.09375 C 97.453125 -155.09375 118.054688 -155.3125 130.234375 -155.75 Z M 130.234375 -155.75 "/></g></g></g><g fill="#ffffff" fill-opacity="1"><g transform="translate(196.403388, 249.675184)"><g><path d="M 56.3125 -158.171875 C 62.769531 -158.171875 67.867188 -157.472656 71.609375 -156.078125 C 75.347656 -154.679688 79.195312 -152.664062 83.15625 -150.03125 C 86.382812 -147.976562 88.878906 -146.953125 90.640625 -146.953125 C 91.953125 -146.953125 92.972656 -147.71875 93.703125 -149.25 C 94.441406 -150.789062 95.03125 -153.25 95.46875 -156.625 L 100.53125 -156.625 C 99.800781 -148.125 99.4375 -133.164062 99.4375 -111.75 L 94.375 -111.75 C 93.488281 -123.632812 90.078125 -133.644531 84.140625 -141.78125 C 78.203125 -149.914062 69.585938 -153.984375 58.296875 -153.984375 C 50.378906 -153.984375 43.925781 -151.597656 38.9375 -146.828125 C 33.945312 -142.066406 31.453125 -135.945312 31.453125 -128.46875 C 31.453125 -122.894531 32.734375 -118.054688 35.296875 -113.953125 C 37.867188 -109.847656 41.132812 -106.328125 45.09375 -103.390625 C 49.050781 -100.460938 54.695312 -96.722656 62.03125 -92.171875 L 68.421875 -88.21875 C 77.660156 -82.5 84.953125 -77.472656 90.296875 -73.140625 C 95.648438 -68.816406 99.941406 -63.867188 103.171875 -58.296875 C 106.398438 -52.722656 108.015625 -46.195312 108.015625 -38.71875 C 108.015625 -25.375 103.613281 -15.070312 94.8125 -7.8125 C 86.007812 -0.550781 74.863281 3.078125 61.375 3.078125 C 54.332031 3.078125 48.570312 2.34375 44.09375 0.875 C 39.625 -0.582031 35.335938 -2.5625 31.234375 -5.0625 C 28.003906 -7.113281 25.515625 -8.140625 23.765625 -8.140625 C 22.441406 -8.140625 21.410156 -7.367188 20.671875 -5.828125 C 19.941406 -4.285156 19.359375 -1.828125 18.921875 1.546875 L 13.859375 1.546875 C 14.441406 -6.523438 14.734375 -24.125 14.734375 -51.25 L 19.796875 -51.25 C 20.828125 -36.4375 24.492188 -24.410156 30.796875 -15.171875 C 37.097656 -5.929688 46.773438 -1.3125 59.828125 -1.3125 C 67.753906 -1.3125 74.503906 -3.769531 80.078125 -8.6875 C 85.648438 -13.601562 88.4375 -20.898438 88.4375 -30.578125 C 88.4375 -38.785156 85.6875 -45.75 80.1875 -51.46875 C 74.6875 -57.195312 65.992188 -63.648438 54.109375 -70.828125 C 45.460938 -76.109375 38.460938 -80.800781 33.109375 -84.90625 C 27.753906 -89.019531 23.390625 -93.972656 20.015625 -99.765625 C 16.640625 -105.554688 14.953125 -112.335938 14.953125 -120.109375 C 14.953125 -132.429688 18.910156 -141.851562 26.828125 -148.375 C 34.753906 -154.90625 44.582031 -158.171875 56.3125 -158.171875 Z M 56.3125 -158.171875 "/></g></g></g><g fill="#000000" fill-opacity="1"><g transform="translate(96.572397, 289.545742)"><g><path d="M 10.265625 0 L 10.265625 -8.203125 C 10.265625 -9.191406 10.039062 -9.878906 9.59375 -10.265625 C 9.15625 -10.648438 8.546875 -10.84375 7.765625 -10.84375 L 1.8125 -10.84375 L 1.8125 -12.609375 L 7.90625 -12.609375 C 9.351562 -12.609375 10.425781 -12.285156 11.125 -11.640625 C 11.832031 -11.003906 12.1875 -9.984375 12.1875 -8.578125 L 12.1875 0 Z M 1.8125 0 L 1.8125 -7.546875 L 3.734375 -7.546875 L 3.734375 0 Z M 1.8125 0 "/></g></g></g><g fill="#000000" fill-opacity="1"><g transform="translate(117.847117, 289.545742)"><g><path d="M 7.921875 0 L 7.921875 -8.203125 C 7.921875 -9.191406 7.703125 -9.878906 7.265625 -10.265625 C 6.828125 -10.648438 6.21875 -10.84375 5.4375 -10.84375 L 0.3125 -10.84375 L 0.3125 -12.609375 L 5.5625 -12.609375 C 7.007812 -12.609375 8.082031 -12.285156 8.78125 -11.640625 C 9.488281 -11.003906 9.84375 -9.984375 9.84375 -8.578125 L 9.84375 0 Z M 7.921875 0 "/></g></g></g><g fill="#000000" fill-opacity="1"><g transform="translate(136.779608, 289.545742)"><g><path d="M 7.578125 0.28125 C 6.441406 0.28125 5.425781 0.03125 4.53125 -0.46875 C 3.632812 -0.96875 2.9375 -1.707031 2.4375 -2.6875 C 1.9375 -3.675781 1.6875 -4.90625 1.6875 -6.375 C 1.6875 -7.164062 1.753906 -7.953125 1.890625 -8.734375 C 2.023438 -9.515625 2.171875 -10.21875 2.328125 -10.84375 L 0.75 -10.84375 L 0.75 -12.609375 L 7.46875 -12.609375 C 8.78125 -12.609375 9.878906 -12.34375 10.765625 -11.8125 C 11.648438 -11.28125 12.316406 -10.535156 12.765625 -9.578125 C 13.210938 -8.617188 13.4375 -7.5 13.4375 -6.21875 C 13.4375 -4.851562 13.191406 -3.6875 12.703125 -2.71875 C 12.222656 -1.757812 11.546875 -1.019531 10.671875 -0.5 C 9.804688 0.0195312 8.773438 0.28125 7.578125 0.28125 Z M 7.46875 -1.390625 C 8.851562 -1.390625 9.863281 -1.828125 10.5 -2.703125 C 11.132812 -3.585938 11.453125 -4.773438 11.453125 -6.265625 C 11.453125 -7.421875 11.273438 -8.332031 10.921875 -9 C 10.566406 -9.675781 10.0625 -10.148438 9.40625 -10.421875 C 8.757812 -10.703125 8.003906 -10.84375 7.140625 -10.84375 L 4.234375 -10.84375 C 4.148438 -10.488281 4.03125 -9.941406 3.875 -9.203125 C 3.726562 -8.460938 3.65625 -7.582031 3.65625 -6.5625 C 3.65625 -4.882812 3.953125 -3.601562 4.546875 -2.71875 C 5.140625 -1.832031 6.113281 -1.390625 7.46875 -1.390625 Z M 7.46875 -1.390625 "/></g></g></g><g fill="#000000" fill-opacity="1"><g transform="translate(158.671829, 289.545742)"><g><path d="M 8.328125 -12.609375 C 9.773438 -12.609375 10.847656 -12.285156 11.546875 -11.640625 C 12.253906 -11.003906 12.609375 -9.984375 12.609375 -8.578125 L 12.609375 0 L 10.6875 0 L 10.6875 -8.203125 C 10.6875 -9.191406 10.46875 -9.878906 10.03125 -10.265625 C 9.59375 -10.648438 8.984375 -10.84375 8.203125 -10.84375 L 3.734375 -10.84375 L 3.734375 0 L 1.8125 0 L 1.8125 -12.609375 Z M 8.328125 -12.609375 "/></g></g></g><g fill="#000000" fill-opacity="1"><g transform="translate(180.372417, 289.545742)"><g/></g></g><g fill="#000000" fill-opacity="1"><g transform="translate(193.066066, 289.545742)"><g><path d="M 10.265625 0 L 10.265625 -8.203125 C 10.265625 -9.191406 10.039062 -9.878906 9.59375 -10.265625 C 9.15625 -10.648438 8.546875 -10.84375 7.765625 -10.84375 L 1.8125 -10.84375 L 1.8125 -12.609375 L 7.90625 -12.609375 C 9.351562 -12.609375 10.425781 -12.285156 11.125 -11.640625 C 11.832031 -11.003906 12.1875 -9.984375 12.1875 -8.578125 L 12.1875 0 Z M 1.8125 0 L 1.8125 -7.546875 L 3.734375 -7.546875 L 3.734375 0 Z M 1.8125 0 "/></g></g></g><g fill="#000000" fill-opacity="1"><g transform="translate(214.340791, 289.545742)"><g><path d="M 0.640625 0 L 0.640625 -1.765625 L 4.828125 -1.765625 L 4.828125 -9.484375 C 4.828125 -9.972656 4.722656 -10.320312 4.515625 -10.53125 C 4.316406 -10.738281 4.007812 -10.84375 3.59375 -10.84375 L 1.34375 -10.84375 L 1.34375 -12.609375 L 4.15625 -12.609375 C 4.90625 -12.609375 5.523438 -12.382812 6.015625 -11.9375 C 6.503906 -11.5 6.75 -10.757812 6.75 -9.71875 L 6.75 0 Z M 0.640625 0 "/></g></g></g><g fill="#000000" fill-opacity="1"><g transform="translate(230.185799, 289.545742)"><g><path d="M 1.8125 0 L 1.8125 -12.609375 L 3.734375 -12.609375 L 3.734375 0 Z M 1.8125 0 "/></g></g></g><g fill="#000000" fill-opacity="1"><g transform="translate(243.113662, 289.545742)"><g><path d="M 7.453125 -12.859375 C 8.929688 -12.859375 10.0625 -12.457031 10.84375 -11.65625 C 11.632812 -10.851562 12.03125 -9.816406 12.03125 -8.546875 L 12.03125 0 L 6.5 0 L 6.5 -1.765625 L 10.109375 -1.765625 L 10.109375 -8.234375 C 10.109375 -9.117188 9.882812 -9.832031 9.4375 -10.375 C 9 -10.914062 8.296875 -11.1875 7.328125 -11.1875 C 6.203125 -11.1875 5.351562 -10.804688 4.78125 -10.046875 C 4.21875 -9.285156 3.867188 -8.257812 3.734375 -6.96875 L 2.984375 0 L 1.0625 0 L 2.015625 -8.734375 L 1.171875 -12.609375 L 3.09375 -12.609375 L 3.453125 -10.8125 L 3.515625 -10.8125 C 3.753906 -11.164062 4.039062 -11.5 4.375 -11.8125 C 4.71875 -12.125 5.132812 -12.375 5.625 -12.5625 C 6.125 -12.757812 6.734375 -12.859375 7.453125 -12.859375 Z M 7.453125 -12.859375 "/></g></g></g><g fill="#000000" fill-opacity="1"><g transform="translate(264.239339, 289.545742)"><g><path d="M 0.75 0 L 0.75 -1.765625 L 1.71875 -1.765625 C 2.5 -1.765625 2.890625 -2.421875 2.890625 -3.734375 L 2.890625 -10.84375 L 0.828125 -10.84375 L 0.828125 -12.609375 L 8.21875 -12.609375 C 9.664062 -12.609375 10.738281 -12.285156 11.4375 -11.640625 C 12.144531 -11.003906 12.5 -9.984375 12.5 -8.578125 L 12.5 0 L 10.578125 0 L 10.578125 -8.203125 C 10.578125 -9.191406 10.359375 -9.878906 9.921875 -10.265625 C 9.484375 -10.648438 8.875 -10.84375 8.09375 -10.84375 L 4.8125 -10.84375 L 4.8125 -3.828125 C 4.8125 -2.554688 4.5625 -1.597656 4.0625 -0.953125 C 3.570312 -0.316406 2.757812 0 1.625 0 Z M 0.75 0 "/></g></g></g></svg>